<svg width="24" height="24" viewBox="0 0 24 24" fill="none" xmlns="http://www.w3.org/2000/svg">
<g clip-path="url(#clip0_701_2914)">
<path d="M8.99995 18.75C8.90125 18.7506 8.8034 18.7317 8.71202 18.6943C8.62065 18.657 8.53753 18.602 8.46745 18.5325C8.39716 18.4628 8.34136 18.3798 8.30329 18.2884C8.26521 18.1971 8.24561 18.099 8.24561 18C8.24561 17.901 8.26521 17.803 8.30329 17.7116C8.34136 17.6202 8.39716 17.5372 8.46745 17.4675L13.9425 12L8.46745 6.53252C8.32623 6.39129 8.24689 6.19974 8.24689 6.00002C8.24689 5.90112 8.26636 5.8032 8.30421 5.71183C8.34205 5.62046 8.39753 5.53745 8.46745 5.46752C8.53738 5.39759 8.6204 5.34212 8.71177 5.30427C8.80313 5.26643 8.90106 5.24695 8.99995 5.24695C9.19968 5.24695 9.39123 5.32629 9.53245 5.46752L15.5325 11.4675C15.6027 11.5372 15.6585 11.6202 15.6966 11.7116C15.7347 11.803 15.7543 11.901 15.7543 12C15.7543 12.099 15.7347 12.1971 15.6966 12.2884C15.6585 12.3798 15.6027 12.4628 15.5325 12.5325L9.53245 18.5325C9.46237 18.602 9.37926 18.657 9.28788 18.6943C9.19651 18.7317 9.09866 18.7506 8.99995 18.75Z" fill="#999999"/>
</g>
<defs>
<clipPath id="clip0_701_2914">
<rect width="24" height="24" fill="white"/>
</clipPath>
</defs>
</svg>
