<svg width="16" height="24" viewBox="0 0 16 24" fill="none" xmlns="http://www.w3.org/2000/svg">
<path fill-rule="evenodd" clip-rule="evenodd" d="M4.35788 1.25526L2.83481 2.00706C-2.80657 4.94802 5.55959 22.4029 11.9012 22.4029C12.3491 22.4029 12.7815 22.3114 13.1837 22.1264L14.6853 21.3911L11.8632 15.9435L10.3635 16.6778C10.1872 16.7625 9.98953 16.8083 9.78211 16.8083C7.28813 16.8083 3.12015 8.81899 5.6521 7.46342L7.15764 6.72039L4.35788 1.25526ZM11.9012 23.3719C6.36981 23.3719 0 12.5488 0 6.00657C0 3.65088 0.811199 1.96908 2.3927 1.14522L4.71236 0L8.46841 7.15472L6.09519 8.32429C4.69385 9.07608 8.44114 16.5278 9.94766 15.8033L12.2839 14.6551L16 21.8225C16 21.8225 13.7018 22.9541 13.5888 23.0057C13.0561 23.2502 12.4893 23.3719 11.9012 23.3719Z" fill="#383838"/>
</svg>
