<svg width="14" height="14" viewBox="0 0 14 14" fill="none" xmlns="http://www.w3.org/2000/svg">
<path d="M6.54792 0.948657C6.63192 0.77599 6.80792 0.666656 6.99992 0.666656C7.19258 0.666656 7.36792 0.77599 7.45192 0.948657C8.10125 2.28066 9.21859 4.57532 9.21859 4.57532C9.21859 4.57532 11.7593 4.92466 13.2333 5.12799C13.5019 5.16466 13.6666 5.39199 13.6666 5.62599C13.6666 5.75266 13.6186 5.88132 13.5126 5.98332C12.4393 7.00866 10.5913 8.77732 10.5913 8.77732C10.5913 8.77732 11.0426 11.2887 11.3039 12.7453C11.3593 13.0533 11.1206 13.3333 10.8093 13.3333C10.7279 13.3333 10.6466 13.314 10.5726 13.274C9.26058 12.5753 6.99992 11.3733 6.99992 11.3733C6.99992 11.3733 4.73925 12.5753 3.42725 13.274C3.35325 13.314 3.27125 13.3333 3.18992 13.3333C2.87992 13.3333 2.63992 13.0527 2.69592 12.7453C2.95792 11.2887 3.40925 8.77732 3.40925 8.77732C3.40925 8.77732 1.56059 7.00866 0.487919 5.98332C0.381252 5.88132 0.333252 5.75266 0.333252 5.62666C0.333252 5.39199 0.499252 5.16399 0.767252 5.12799C2.24125 4.92466 4.78125 4.57532 4.78125 4.57532C4.78125 4.57532 5.89925 2.28066 6.54792 0.948657Z" fill="#FF8800"/>
</svg>
