<svg width="28" height="28" viewBox="0 0 28 28" fill="none" xmlns="http://www.w3.org/2000/svg">
<path fill-rule="evenodd" clip-rule="evenodd" d="M14.8318 23.058C16.5327 20.1396 20.25 13.4544 20.25 10.7671C20.25 7.28269 17.4518 4.45799 14 4.45799C10.5482 4.45799 7.75 7.28269 7.75 10.7671C7.75 13.4544 11.4673 20.1396 13.1682 23.058C13.5444 23.7033 14.4556 23.7033 14.8318 23.058ZM14 14.5525C16.0711 14.5525 17.75 12.8576 17.75 10.767C17.75 8.67631 16.0711 6.98149 14 6.98149C11.9289 6.98149 10.25 8.67631 10.25 10.767C10.25 12.8576 11.9289 14.5525 14 14.5525Z" fill="#FF8800"/>
</svg>
