<svg width="94" height="35" viewBox="0 0 94 35" fill="none" xmlns="http://www.w3.org/2000/svg">
<path d="M10.879 13.776L15.743 26.64H11.679L8.703 18.512L4.895 26.64H0.798998L10.175 6.128H1.215V2.64H14.431V6.128L10.879 13.776ZM21.727 26.736H18.175V2.512H21.727V26.736Z" fill="#FF8800"/>
<path d="M24.8815 7.632C24.8815 6.94933 25.0095 6.30933 25.2655 5.712C25.5428 5.11467 25.9055 4.592 26.3535 4.144C26.8228 3.67467 27.3668 3.312 27.9855 3.056C28.6042 2.77867 29.2655 2.64 29.9695 2.64H39.7615C40.4655 2.64 41.1268 2.77867 41.7455 3.056C42.3642 3.312 42.8975 3.67467 43.3455 4.144C43.8148 4.592 44.1775 5.11467 44.4335 5.712C44.7108 6.30933 44.8495 6.94933 44.8495 7.632V9.232C44.8495 9.91467 44.7108 10.5653 44.4335 11.184C44.1775 11.7813 43.8148 12.304 43.3455 12.752C42.8975 13.2 42.3642 13.5627 41.7455 13.84C41.1268 14.096 40.4655 14.224 39.7615 14.224H29.9695C29.2655 14.224 28.6042 14.096 27.9855 13.84C27.3668 13.5627 26.8228 13.2 26.3535 12.752C25.9055 12.304 25.5428 11.7813 25.2655 11.184C25.0095 10.5653 24.8815 9.91467 24.8815 9.232V7.632ZM45.8735 17.552V20.752H36.6575V26.736H33.0735V20.752H23.8575V17.552H45.8735ZM28.4975 8.432C28.4975 9.072 28.6788 9.62667 29.0415 10.096C29.4255 10.5653 29.9802 10.8 30.7055 10.8H39.0255C39.7508 10.8 40.2948 10.5653 40.6575 10.096C41.0415 9.62667 41.2335 9.072 41.2335 8.432C41.2335 7.81333 41.0415 7.26933 40.6575 6.8C40.2948 6.33067 39.7508 6.096 39.0255 6.096H30.7055C29.9802 6.096 29.4255 6.33067 29.0415 6.8C28.6788 7.26933 28.4975 7.81333 28.4975 8.432Z" fill="#FF9500"/>
<path d="M70.18 10.608H67.556V21.2L66.596 26.736H63.076L64.1 21.2H48.868V18.192H63.748V2.512H67.556V7.152H70.18V10.608ZM55.972 3.408H60.644V6.48H57.476C58.2013 6.90667 58.7773 7.44 59.204 8.08C59.652 8.72 59.876 9.424 59.876 10.192V11.792C59.876 12.432 59.716 13.0293 59.396 13.584C59.0973 14.1387 58.6813 14.6293 58.148 15.056C57.6147 15.4827 56.996 15.8133 56.292 16.048C55.588 16.2827 54.852 16.4 54.084 16.4C53.2947 16.4 52.5587 16.2827 51.876 16.048C51.1933 15.8133 50.596 15.4827 50.084 15.056C49.572 14.6293 49.1667 14.1387 48.868 13.584C48.5693 13.0293 48.42 12.432 48.42 11.792V10.288C48.42 9.43467 48.644 8.688 49.092 8.048C49.54 7.408 50.1053 6.88533 50.788 6.48H47.652V3.408H52.388V1.648H55.972V3.408ZM56.58 10.864C56.58 10.5867 56.516 10.32 56.388 10.064C56.26 9.78667 56.0893 9.552 55.876 9.36C55.6627 9.14667 55.4067 8.98667 55.108 8.88C54.8093 8.77333 54.5 8.72 54.18 8.72C53.8387 8.72 53.5187 8.77333 53.22 8.88C52.9427 8.98667 52.6867 9.14667 52.452 9.36C52.2387 9.552 52.068 9.78667 51.94 10.064C51.812 10.32 51.748 10.5867 51.748 10.864V11.312C51.748 11.6107 51.812 11.888 51.94 12.144C52.068 12.4 52.2387 12.6347 52.452 12.848C52.6867 13.04 52.9427 13.1893 53.22 13.296C53.5187 13.4027 53.8387 13.456 54.18 13.456C54.5 13.456 54.8093 13.4027 55.108 13.296C55.4067 13.1893 55.6627 13.04 55.876 12.848C56.0893 12.6347 56.26 12.4 56.388 12.144C56.516 11.888 56.58 11.6107 56.58 11.312V10.864Z" fill="#FFA200"/>
<path d="M83.7665 2.64V14.96H71.0625V2.64H83.7665ZM81.6865 21.808L76.8865 26.736H71.8625L80.3425 18.128H83.0305L91.5105 26.736H86.4865L81.6865 21.808ZM90.8385 8.688H93.4625V11.76H90.8385V18.896H87.2545V2.512H90.8385V8.688ZM74.9345 11.6H79.8945V6H74.9345V11.6Z" fill="#FFAA00"/>
</svg>
