<svg width="105" height="43" viewBox="0 0 105 43" fill="none" xmlns="http://www.w3.org/2000/svg">
<path d="M17.839 18.776L22.703 31.64H18.639L15.663 23.512L11.855 31.64H7.759L17.135 11.128H8.175V7.64H21.391V11.128L17.839 18.776ZM28.687 31.736H25.135V7.512H28.687V31.736Z" fill="#FF8800"/>
<path d="M31.2015 12.632C31.2015 11.9493 31.3295 11.3093 31.5855 10.712C31.8628 10.1147 32.2255 9.592 32.6735 9.144C33.1428 8.67467 33.6868 8.312 34.3055 8.056C34.9242 7.77867 35.5855 7.64 36.2895 7.64H46.0815C46.7855 7.64 47.4468 7.77867 48.0655 8.056C48.6842 8.312 49.2175 8.67467 49.6655 9.144C50.1348 9.592 50.4975 10.1147 50.7535 10.712C51.0308 11.3093 51.1695 11.9493 51.1695 12.632V14.232C51.1695 14.9147 51.0308 15.5653 50.7535 16.184C50.4975 16.7813 50.1348 17.304 49.6655 17.752C49.2175 18.2 48.6842 18.5627 48.0655 18.84C47.4468 19.096 46.7855 19.224 46.0815 19.224H36.2895C35.5855 19.224 34.9242 19.096 34.3055 18.84C33.6868 18.5627 33.1428 18.2 32.6735 17.752C32.2255 17.304 31.8628 16.7813 31.5855 16.184C31.3295 15.5653 31.2015 14.9147 31.2015 14.232V12.632ZM52.1935 22.552V25.752H42.9775V31.736H39.3935V25.752H30.1775V22.552H52.1935ZM34.8175 13.432C34.8175 14.072 34.9988 14.6267 35.3615 15.096C35.7455 15.5653 36.3002 15.8 37.0255 15.8H45.3455C46.0708 15.8 46.6148 15.5653 46.9775 15.096C47.3615 14.6267 47.5535 14.072 47.5535 13.432C47.5535 12.8133 47.3615 12.2693 46.9775 11.8C46.6148 11.3307 46.0708 11.096 45.3455 11.096H37.0255C36.3002 11.096 35.7455 11.3307 35.3615 11.8C34.9988 12.2693 34.8175 12.8133 34.8175 13.432Z" fill="#FF9500"/>
<path d="M75.86 15.608H73.236V26.2L72.276 31.736H68.756L69.78 26.2H54.548V23.192H69.428V7.512H73.236V12.152H75.86V15.608ZM61.652 8.408H66.324V11.48H63.156C63.8813 11.9067 64.4573 12.44 64.884 13.08C65.332 13.72 65.556 14.424 65.556 15.192V16.792C65.556 17.432 65.396 18.0293 65.076 18.584C64.7773 19.1387 64.3613 19.6293 63.828 20.056C63.2947 20.4827 62.676 20.8133 61.972 21.048C61.268 21.2827 60.532 21.4 59.764 21.4C58.9747 21.4 58.2387 21.2827 57.556 21.048C56.8733 20.8133 56.276 20.4827 55.764 20.056C55.252 19.6293 54.8467 19.1387 54.548 18.584C54.2493 18.0293 54.1 17.432 54.1 16.792V15.288C54.1 14.4347 54.324 13.688 54.772 13.048C55.22 12.408 55.7853 11.8853 56.468 11.48H53.332V8.408H58.068V6.648H61.652V8.408ZM62.26 15.864C62.26 15.5867 62.196 15.32 62.068 15.064C61.94 14.7867 61.7693 14.552 61.556 14.36C61.3427 14.1467 61.0867 13.9867 60.788 13.88C60.4893 13.7733 60.18 13.72 59.86 13.72C59.5187 13.72 59.1987 13.7733 58.9 13.88C58.6227 13.9867 58.3667 14.1467 58.132 14.36C57.9187 14.552 57.748 14.7867 57.62 15.064C57.492 15.32 57.428 15.5867 57.428 15.864V16.312C57.428 16.6107 57.492 16.888 57.62 17.144C57.748 17.4 57.9187 17.6347 58.132 17.848C58.3667 18.04 58.6227 18.1893 58.9 18.296C59.1987 18.4027 59.5187 18.456 59.86 18.456C60.18 18.456 60.4893 18.4027 60.788 18.296C61.0867 18.1893 61.3427 18.04 61.556 17.848C61.7693 17.6347 61.94 17.4 62.068 17.144C62.196 16.888 62.26 16.6107 62.26 16.312V15.864Z" fill="#FFA200"/>
<path d="M88.8065 7.64V19.96H76.1025V7.64H88.8065ZM86.7265 26.808L81.9265 31.736H76.9025L85.3825 23.128H88.0705L96.5505 31.736H91.5265L86.7265 26.808ZM95.8785 13.688H98.5025V16.76H95.8785V23.896H92.2945V7.512H95.8785V13.688ZM79.9745 16.6H84.9345V11H79.9745V16.6Z" fill="#FFAA00"/>
</svg>
