<svg width="272" height="77" viewBox="0 0 272 77" fill="none" xmlns="http://www.w3.org/2000/svg">
<path d="M23.168 33.552L32.896 59.28H24.768L18.816 43.024L11.2 59.28H3.008L21.76 18.256H3.84V11.28H30.272V18.256L23.168 33.552ZM44.864 59.472H37.76V11.024H44.864V59.472Z" fill="#FF8800"/>
<path d="M54.085 51.632L54.741 48.224H47.333V46.32H56.613V48.224L55.957 51.632H57.573V53.248H46.565V51.632H54.085ZM56.837 54.128V58.368H47.301V54.128H56.837ZM55.045 55.6H49.093V56.88H55.045V55.6ZM124.523 58.368H122.763V46.256H124.523V58.368ZM120.619 46.32V53.232H116.203V56.624H120.763V58.304H114.411V51.392H118.827V48.064H114.411V46.32H120.619ZM183.042 56.672V51.968H184.898V56.672H186.034V51.968H187.89V56.672H188.898L189.57 48.112H182.146V46.384H191.49V48.112L190.818 56.672H192.37V58.368H181.362V56.672H183.042ZM251.416 54.096H257.528V46.256H259.32V58.368H249.624V53.184H251.416V54.096ZM255.384 46.32V48.096L253.8 49.264L255.448 50.544V52.688L252.376 50.304L249.08 52.752V50.608L252.456 48.096H249.08V46.32H255.384ZM251.416 56.688H257.528V55.68H251.416V56.688ZM268.338 46.32C268.647 46.32 268.94 46.3893 269.218 46.528C269.495 46.656 269.735 46.8373 269.938 47.072C270.151 47.296 270.316 47.568 270.434 47.888C270.551 48.1973 270.61 48.528 270.61 48.88C270.61 49.2213 270.551 49.5467 270.434 49.856C270.316 50.1653 270.151 50.4373 269.938 50.672C269.735 50.896 269.495 51.0773 269.218 51.216C268.94 51.344 268.647 51.408 268.338 51.408H263.154C262.844 51.408 262.551 51.344 262.274 51.216C261.996 51.0773 261.751 50.896 261.538 50.672C261.335 50.4373 261.175 50.1653 261.058 49.856C260.94 49.5467 260.882 49.2213 260.882 48.88C260.882 48.528 260.94 48.1973 261.058 47.888C261.175 47.568 261.335 47.296 261.538 47.072C261.751 46.8373 261.996 46.656 262.274 46.528C262.551 46.3893 262.844 46.32 263.154 46.32H268.338ZM271.25 52.416V54.16H262.93V56.672H270.642V58.368H261.106V54.16H260.242V52.416H271.25ZM263.154 48.048C263.026 48.048 262.898 48.1227 262.77 48.272C262.652 48.4213 262.594 48.624 262.594 48.88C262.594 49.1147 262.652 49.3067 262.77 49.456C262.898 49.6053 263.026 49.68 263.154 49.68H268.338C268.466 49.68 268.588 49.6053 268.706 49.456C268.823 49.3067 268.882 49.1147 268.882 48.88C268.882 48.624 268.823 48.4213 268.706 48.272C268.588 48.1227 268.466 48.048 268.338 48.048H263.154Z" fill="#111111"/>
<path d="M72.0064 21.264C72.0064 19.8987 72.2624 18.6187 72.7744 17.424C73.3291 16.2293 74.0544 15.184 74.9504 14.288C75.8891 13.3493 76.9771 12.624 78.2144 12.112C79.4518 11.5573 80.7744 11.28 82.1824 11.28H101.766C103.174 11.28 104.497 11.5573 105.734 12.112C106.972 12.624 108.038 13.3493 108.934 14.288C109.873 15.184 110.598 16.2293 111.11 17.424C111.665 18.6187 111.942 19.8987 111.942 21.264V24.464C111.942 25.8293 111.665 27.1307 111.11 28.368C110.598 29.5627 109.873 30.608 108.934 31.504C108.038 32.4 106.972 33.1253 105.734 33.68C104.497 34.192 103.174 34.448 101.766 34.448H82.1824C80.7744 34.448 79.4518 34.192 78.2144 33.68C76.9771 33.1253 75.8891 32.4 74.9504 31.504C74.0544 30.608 73.3291 29.5627 72.7744 28.368C72.2624 27.1307 72.0064 25.8293 72.0064 24.464V21.264ZM113.99 41.104V47.504H95.5584V59.472H88.3904V47.504H69.9584V41.104H113.99ZM79.2384 22.864C79.2384 24.144 79.6011 25.2533 80.3264 26.192C81.0944 27.1307 82.2038 27.6 83.6544 27.6H100.294C101.745 27.6 102.833 27.1307 103.558 26.192C104.326 25.2533 104.71 24.144 104.71 22.864C104.71 21.6267 104.326 20.5387 103.558 19.6C102.833 18.6613 101.745 18.192 100.294 18.192H83.6544C82.2038 18.192 81.0944 18.6613 80.3264 19.6C79.6011 20.5387 79.2384 21.6267 79.2384 22.864Z" fill="#FF9500"/>
<path d="M183.437 27.216H178.189V48.4L176.269 59.472H169.229L171.277 48.4H140.813V42.384H170.573V11.024H178.189V20.304H183.437V27.216ZM155.021 12.816H164.365V18.96H158.029C159.48 19.8133 160.632 20.88 161.485 22.16C162.381 23.44 162.829 24.848 162.829 26.384V29.584C162.829 30.864 162.509 32.0587 161.869 33.168C161.272 34.2773 160.44 35.2587 159.373 36.112C158.306 36.9653 157.069 37.6267 155.661 38.096C154.253 38.5653 152.781 38.8 151.245 38.8C149.666 38.8 148.194 38.5653 146.829 38.096C145.464 37.6267 144.269 36.9653 143.245 36.112C142.221 35.2587 141.41 34.2773 140.813 33.168C140.216 32.0587 139.917 30.864 139.917 29.584V26.576C139.917 24.8693 140.365 23.376 141.261 22.096C142.157 20.816 143.288 19.7707 144.653 18.96H138.381V12.816H147.853V9.296H155.021V12.816ZM156.237 27.728C156.237 27.1733 156.109 26.64 155.853 26.128C155.597 25.5733 155.256 25.104 154.829 24.72C154.402 24.2933 153.89 23.9733 153.293 23.76C152.696 23.5467 152.077 23.44 151.437 23.44C150.754 23.44 150.114 23.5467 149.517 23.76C148.962 23.9733 148.45 24.2933 147.981 24.72C147.554 25.104 147.213 25.5733 146.957 26.128C146.701 26.64 146.573 27.1733 146.573 27.728V28.624C146.573 29.2213 146.701 29.776 146.957 30.288C147.213 30.8 147.554 31.2693 147.981 31.696C148.45 32.08 148.962 32.3787 149.517 32.592C150.114 32.8053 150.754 32.912 151.437 32.912C152.077 32.912 152.696 32.8053 153.293 32.592C153.89 32.3787 154.402 32.08 154.829 31.696C155.256 31.2693 155.597 30.8 155.853 30.288C156.109 29.776 156.237 29.2213 156.237 28.624V27.728Z" fill="#FFA200"/>
<path d="M231.443 11.28V35.92H206.035V11.28H231.443ZM227.283 49.616L217.683 59.472H207.635L224.595 42.256H229.971L246.931 59.472H236.883L227.283 49.616ZM245.587 23.376H250.835V29.52H245.587V43.792H238.419V11.024H245.587V23.376ZM213.779 29.2H223.699V18H213.779V29.2Z" fill="#FFAA00"/>
</svg>
