<svg width="20" height="19" viewBox="0 0 20 19" fill="none" xmlns="http://www.w3.org/2000/svg">
<path d="M9.568 2.95855L9.99998 3.69983L10.432 2.95857C11.6101 0.937114 13.8779 0.198425 15.8721 0.624318C17.8463 1.0459 19.5 2.59572 19.5 5.16014C19.5 6.90982 18.4491 8.75351 16.6292 10.8846C15.2788 12.4658 13.563 14.1424 11.6599 16.002C11.1203 16.5292 10.5657 17.0712 10 17.6299C9.4332 17.0699 8.87739 16.5268 8.3367 15.9984C6.43523 14.1403 4.72071 12.4648 3.37115 10.8846C1.5511 8.75348 0.5 6.90979 0.5 5.16014C0.5 2.60431 2.15021 1.04623 4.1222 0.618678C6.11257 0.187137 8.3801 0.920093 9.568 2.95855Z" stroke="#D3D3D3"/>
</svg>
